<svg width="187" height="38" viewBox="0 0 187 38" fill="none" xmlns="http://www.w3.org/2000/svg">
<rect y="4" width="30" height="30" rx="6" fill="#F7F7F7"/>
<path d="M9.55866 22.0086C9.39479 22.0086 9.26071 21.9626 9.15642 21.8705C9.05214 21.7784 9 21.66 9 21.5154V8.49326C9 8.34857 9.05214 8.23019 9.15642 8.13811C9.26071 8.04604 9.39479 8 9.55866 8H12.419C12.5829 8 12.7169 8.04604 12.8212 8.13811C12.9255 8.23019 12.9777 8.34857 12.9777 8.49326V12.8932C13.3799 12.4854 13.8715 12.1631 14.4525 11.9264C15.0484 11.6764 15.7337 11.5515 16.5084 11.5515C17.3724 11.5515 18.1397 11.7225 18.8101 12.0645C19.4953 12.4065 20.0317 12.9129 20.419 13.5837C20.8063 14.2414 21 15.0503 21 16.0106V21.5154C21 21.66 20.9479 21.7784 20.8436 21.8705C20.7393 21.9626 20.6052 22.0086 20.4413 22.0086H17.5587C17.4097 22.0086 17.2756 21.9626 17.1564 21.8705C17.0521 21.7784 17 21.66 17 21.5154V16.1289C17 15.5107 16.8287 15.0372 16.486 14.7084C16.1583 14.3664 15.6667 14.1954 15.0112 14.1954C14.4004 14.1954 13.9088 14.3664 13.5363 14.7084C13.1639 15.0372 12.9777 15.5107 12.9777 16.1289V21.5154C12.9777 21.66 12.9255 21.7784 12.8212 21.8705C12.7169 21.9626 12.5829 22.0086 12.419 22.0086H9.55866Z" fill="#1E252B"/>
<path d="M23 24.5101C20.6988 26.7291 18.5 28 15 28C11.7138 28 9.08988 26.5253 7 24.5101" stroke="#1E252B" stroke-width="3" stroke-linecap="round"/>
<path d="M42.002 28V11.048H46.188L48.918 18.588C49.0913 19.0733 49.256 19.5847 49.412 20.122C49.568 20.6593 49.7327 21.188 49.906 21.708H50.01C50.1833 21.188 50.3393 20.6593 50.478 20.122C50.634 19.5847 50.7987 19.0733 50.972 18.588L53.65 11.048H57.81V28H54.326V21.786C54.326 21.2313 54.352 20.616 54.404 19.94C54.4733 19.2467 54.5427 18.5533 54.612 17.86C54.6987 17.1667 54.768 16.5513 54.82 16.014H54.716L53.338 20.044L50.92 26.518H48.814L46.396 20.044L45.044 16.014H44.94C45.0093 16.5513 45.0787 17.1667 45.148 17.86C45.2173 18.5533 45.278 19.2467 45.33 19.94C45.3993 20.616 45.434 21.2313 45.434 21.786V28H42.002ZM64.7447 28.312C63.566 28.312 62.63 27.9393 61.9367 27.194C61.2434 26.4313 60.8967 25.504 60.8967 24.412C60.8967 23.06 61.4687 22.0027 62.6127 21.24C63.7567 20.4773 65.6027 19.966 68.1507 19.706C68.116 19.134 67.9427 18.6833 67.6307 18.354C67.336 18.0073 66.8334 17.834 66.1227 17.834C65.5854 17.834 65.0394 17.938 64.4847 18.146C63.93 18.354 63.3407 18.64 62.7167 19.004L61.3387 16.482C62.1534 15.9793 63.02 15.572 63.9387 15.26C64.8747 14.948 65.8454 14.792 66.8507 14.792C68.4974 14.792 69.7627 15.2687 70.6467 16.222C71.5307 17.1753 71.9727 18.64 71.9727 20.616V28H68.8527L68.5927 26.674H68.4887C67.9514 27.1593 67.3707 27.558 66.7467 27.87C66.14 28.1647 65.4727 28.312 64.7447 28.312ZM66.0447 25.348C66.478 25.348 66.8507 25.2527 67.1627 25.062C67.492 24.854 67.8214 24.5853 68.1507 24.256V21.994C66.7987 22.1673 65.8627 22.4447 65.3427 22.826C64.8227 23.19 64.5627 23.6233 64.5627 24.126C64.5627 24.542 64.6927 24.854 64.9527 25.062C65.23 25.2527 65.594 25.348 66.0447 25.348ZM79.0016 28.312C78.1523 28.312 77.277 28.1473 76.3756 27.818C75.4916 27.4887 74.7203 27.0553 74.0616 26.518L75.7776 24.126C76.367 24.5593 76.9303 24.8973 77.4676 25.14C78.0223 25.3653 78.5683 25.478 79.1056 25.478C79.6776 25.478 80.0936 25.3827 80.3536 25.192C80.6136 24.984 80.7436 24.7153 80.7436 24.386C80.7436 24.0913 80.6136 23.8487 80.3536 23.658C80.111 23.4673 79.7903 23.294 79.3916 23.138C78.993 22.9647 78.5683 22.7913 78.1176 22.618C77.5976 22.41 77.0776 22.15 76.5576 21.838C76.055 21.526 75.6303 21.1273 75.2836 20.642C74.937 20.1393 74.7636 19.5327 74.7636 18.822C74.7636 17.626 75.2143 16.6553 76.1156 15.91C77.0343 15.1647 78.2303 14.792 79.7036 14.792C80.6916 14.792 81.5583 14.9653 82.3036 15.312C83.0663 15.6413 83.7163 16.014 84.2536 16.43L82.5376 18.718C82.087 18.3713 81.6363 18.1027 81.1856 17.912C80.735 17.7213 80.2843 17.626 79.8336 17.626C78.8456 17.626 78.3516 17.964 78.3516 18.64C78.3516 19.056 78.5943 19.3767 79.0796 19.602C79.5823 19.81 80.163 20.0353 80.8216 20.278C81.3763 20.4687 81.9136 20.72 82.4336 21.032C82.971 21.3267 83.413 21.7253 83.7596 22.228C84.1236 22.7133 84.3056 23.3547 84.3056 24.152C84.3056 25.3133 83.855 26.3013 82.9536 27.116C82.0523 27.9133 80.735 28.312 79.0016 28.312ZM89.983 28.312C88.8043 28.312 87.8683 27.9393 87.175 27.194C86.4816 26.4313 86.135 25.504 86.135 24.412C86.135 23.06 86.707 22.0027 87.851 21.24C88.995 20.4773 90.841 19.966 93.389 19.706C93.3543 19.134 93.181 18.6833 92.869 18.354C92.5743 18.0073 92.0716 17.834 91.361 17.834C90.8236 17.834 90.2776 17.938 89.723 18.146C89.1683 18.354 88.579 18.64 87.955 19.004L86.577 16.482C87.3916 15.9793 88.2583 15.572 89.177 15.26C90.113 14.948 91.0836 14.792 92.089 14.792C93.7356 14.792 95.001 15.2687 95.885 16.222C96.769 17.1753 97.211 18.64 97.211 20.616V28H94.091L93.831 26.674H93.727C93.1896 27.1593 92.609 27.558 91.985 27.87C91.3783 28.1647 90.711 28.312 89.983 28.312ZM91.283 25.348C91.7163 25.348 92.089 25.2527 92.401 25.062C92.7303 24.854 93.0596 24.5853 93.389 24.256V21.994C92.037 22.1673 91.101 22.4447 90.581 22.826C90.061 23.19 89.801 23.6233 89.801 24.126C89.801 24.542 89.931 24.854 90.191 25.062C90.4683 25.2527 90.8323 25.348 91.283 25.348ZM100.444 28V15.104H104.266V28H100.444ZM102.342 13.206C101.701 13.206 101.181 13.024 100.782 12.66C100.383 12.296 100.184 11.8107 100.184 11.204C100.184 10.5973 100.383 10.112 100.782 9.748C101.181 9.384 101.701 9.202 102.342 9.202C102.983 9.202 103.503 9.384 103.902 9.748C104.301 10.112 104.5 10.5973 104.5 11.204C104.5 11.8107 104.301 12.296 103.902 12.66C103.503 13.024 102.983 13.206 102.342 13.206ZM113.147 28V11.048H123.833V14.272H116.969V18.198H122.845V21.422H116.969V28H113.147ZM131.55 28.312C130.458 28.312 129.427 28.052 128.456 27.532C127.503 26.9947 126.732 26.2233 126.142 25.218C125.553 24.1953 125.258 22.9733 125.258 21.552C125.258 20.1133 125.553 18.8913 126.142 17.886C126.732 16.8807 127.503 16.118 128.456 15.598C129.427 15.0607 130.458 14.792 131.55 14.792C132.642 14.792 133.665 15.0607 134.618 15.598C135.572 16.118 136.343 16.8807 136.932 17.886C137.522 18.8913 137.816 20.1133 137.816 21.552C137.816 22.9733 137.522 24.1953 136.932 25.218C136.343 26.2233 135.572 26.9947 134.618 27.532C133.665 28.052 132.642 28.312 131.55 28.312ZM131.55 25.218C132.33 25.218 132.92 24.8887 133.318 24.23C133.717 23.554 133.916 22.6613 133.916 21.552C133.916 20.4253 133.717 19.5327 133.318 18.874C132.92 18.2153 132.33 17.886 131.55 17.886C130.753 17.886 130.155 18.2153 129.756 18.874C129.375 19.5327 129.184 20.4253 129.184 21.552C129.184 22.6613 129.375 23.554 129.756 24.23C130.155 24.8887 130.753 25.218 131.55 25.218ZM140.434 28V15.104H143.554L143.814 17.366H143.918C144.386 16.4993 144.949 15.858 145.608 15.442C146.267 15.0087 146.925 14.792 147.584 14.792C147.948 14.792 148.251 14.818 148.494 14.87C148.737 14.9047 148.945 14.9653 149.118 15.052L148.494 18.354C148.269 18.2847 148.043 18.2327 147.818 18.198C147.61 18.1633 147.367 18.146 147.09 18.146C146.605 18.146 146.093 18.328 145.556 18.692C145.036 19.0387 144.603 19.6453 144.256 20.512V28H140.434ZM154.668 28.312C153.264 28.312 152.241 27.8527 151.6 26.934C150.976 25.998 150.664 24.724 150.664 23.112V15.104H154.486V22.618C154.486 23.5367 154.616 24.178 154.876 24.542C155.136 24.8887 155.543 25.062 156.098 25.062C156.583 25.062 156.99 24.9493 157.32 24.724C157.649 24.4987 158.004 24.1347 158.386 23.632V15.104H162.208V28H159.088L158.802 26.206H158.724C158.186 26.8473 157.597 27.3587 156.956 27.74C156.314 28.1213 155.552 28.312 154.668 28.312ZM165.571 28V15.104H168.691L168.951 16.768H169.055C169.592 16.2307 170.164 15.7713 170.771 15.39C171.378 14.9913 172.106 14.792 172.955 14.792C173.874 14.792 174.61 14.9827 175.165 15.364C175.737 15.728 176.188 16.2567 176.517 16.95C177.089 16.3607 177.696 15.858 178.337 15.442C178.978 15.0087 179.724 14.792 180.573 14.792C181.96 14.792 182.974 15.26 183.615 16.196C184.274 17.1147 184.603 18.38 184.603 19.992V28H180.781V20.486C180.781 19.55 180.651 18.9087 180.391 18.562C180.148 18.2153 179.75 18.042 179.195 18.042C178.554 18.042 177.817 18.458 176.985 19.29V28H173.163V20.486C173.163 19.55 173.033 18.9087 172.773 18.562C172.53 18.2153 172.132 18.042 171.577 18.042C170.936 18.042 170.208 18.458 169.393 19.29V28H165.571Z" fill="#FF571A"/>
</svg>
